#N canvas 85 23 1362 724 10;
#X msg 12 38 devices;
#X obj 79 146 arduino;
#X obj 79 70 t f b;
#X msg 79 100 open \$1;
#X msg 144 101 close;
#X msg 198 101 close;
#X obj 79 179 route analog;
#X obj 80 211 route 0 1 2 3 4 5 6 7;
#X obj 32 3 loadbang;
#N canvas 0 22 450 300 (subpatch) 0;
#X array snare 14545 float 2;
#X coords 0 1 14545 -1 100 70 1 0 0;
#X restore 369 39 graph;
#X obj 257 207 soundfiler;
#X obj 288 139 loadbang;
#X obj 201 384 bng 15 250 50 0 empty empty empty 17 7 0 10 -262144
-1 -1;
#X obj 201 408 tabplay~ snare;
#X floatatom 166 291 5 0 0 0 - - -;
#X obj 99 250 key;
#X obj 166 324 sel 122 120 99;
#X obj 258 142 bng 15 250 50 0 empty empty empty 17 7 0 10 -262144
-1 -1;
#X floatatom 208 291 5 0 0 0 - - -;
#X obj 266 291 change;
#X obj 267 325 sel 1;
#X obj 13 250 nbx 5 14 -1e+37 1e+37 0 0 empty empty empty 0 -8 0 10
-262144 -1 -1 0.030303 256;
#X obj 208 253 > 0.5;
#X obj 80 375 autoscale 0 1;
#X floatatom 80 427 5 0 0 0 - - -;
#X obj 99 290 sel 32;
#X msg 99 326 reset;
#X msg 79 38 2;
#X text 333 224 Receiver;
#X text 321 424 Sender;
#X obj 500 681 sendOSC;
#X msg 414 501 connect 192.168.11.57 9001;
#X msg 446 537 disconnect;
#X obj 348 242 dumpOSC 9001;
#X msg 390 473 connect 192.168.11.56 9001;
#X text 557 471 harashima;
#X msg 348 447 connect 127.0.0.1 9001;
#X text 494 445 localhost;
#X msg 308 526 send /v1 bang;
#X text 583 501 katoh;
#X obj 201 467 *~ 1;
#X msg 252 100 analogIns 0 1;
#X obj 200 495 s~ rawout;
#X obj 1102 595 +~;
#X obj 1102 623 delwrite~ delay1 1000;
#X floatatom 1082 472 5 0 100 0 feedback - -;
#X obj 1070 526 delread~ delay1 500;
#X obj 930 526 delread~ delay1 250;
#X obj 1205 496 / 100;
#X floatatom 978 474 5 1 1000 0 delay_time - -;
#X obj 1174 572 *~ 0.7;
#X obj 999 600 +~;
#X obj 1077 564 r~ rawout;
#X text 944 401 Delay;
#X msg 714 504 clear;
#X floatatom 760 470 5 1 500 0 cutoff_freq - -;
#X floatatom 846 525 5 1 100 0 resonance - -;
#X obj 659 541 r~ rawout;
#X obj 760 503 * 100;
#X obj 730 666 output~;
#X obj 737 595 bp~ 500 1;
#X text 564 605 BandPass Filter;
#X msg 113 37 6;
#X msg 351 139 read -resize wav/snare.wav snare;
#X obj 341 402 bng 15 250 50 0 empty empty empty 17 7 0 10 -262144
-1 -1;
#X obj 348 270 OSCroute /v1 /v2;
#X floatatom 394 298 5 0 0 0 - - -;
#X msg 664 408 send /v2 \$1;
#X msg 257 176 read -resize wav/hi-hat.wav snare;
#X obj 664 376 clip 5 90;
#X obj 979 353 loadbang;
#X obj 740 639 hip~ 5;
#X floatatom 664 352 5 0 0 0 - - -;
#X obj 664 327 line;
#X obj 664 298 pack 0 200;
#X text 517 8 Lepa_Output;
#X obj 664 268 line;
#X obj 665 242 pack 0 200;
#X obj 617 66 bng 15 250 50 0 empty empty empty 17 7 0 10 -262144 -1
-1;
#X obj 617 7 tgl 30 0 empty empty empty 17 7 0 10 -262144 -1 -1 1 1
;
#X obj 617 44 metro 50;
#X obj 652 93 leapmotion;
#X msg 689 63 hands_palm_position 1;
#X obj 680 142 route \$1;
#X obj 680 194 unpack 0 0 0;
#X obj 680 168 route palm_position;
#X floatatom 665 218 5 0 0 0 - - -;
#X floatatom 706 217 5 0 0 0 - - -;
#X floatatom 753 218 5 0 0 0 - - -;
#X obj 680 117 route hand;
#X obj 689 40 loadbang;
#X text 995 363;
#X text 572 -8;
#X msg 979 406 50;
#X connect 0 0 1 0;
#X connect 1 0 6 0;
#X connect 2 0 3 0;
#X connect 2 1 4 0;
#X connect 3 0 1 0;
#X connect 4 0 1 0;
#X connect 5 0 1 0;
#X connect 6 0 7 0;
#X connect 7 0 21 0;
#X connect 7 0 22 0;
#X connect 7 0 23 0;
#X connect 8 0 0 0;
#X connect 8 0 27 0;
#X connect 11 0 68 0;
#X connect 12 0 13 0;
#X connect 13 0 40 0;
#X connect 14 0 16 0;
#X connect 15 0 14 0;
#X connect 15 0 25 0;
#X connect 16 0 12 0;
#X connect 17 0 68 0;
#X connect 19 0 20 0;
#X connect 20 0 12 0;
#X connect 20 0 38 0;
#X connect 22 0 18 0;
#X connect 22 0 19 0;
#X connect 23 0 24 0;
#X connect 25 0 26 0;
#X connect 26 0 23 0;
#X connect 27 0 2 0;
#X connect 31 0 30 0;
#X connect 32 0 30 0;
#X connect 33 0 65 0;
#X connect 34 0 30 0;
#X connect 36 0 30 0;
#X connect 38 0 30 0;
#X connect 40 0 42 0;
#X connect 41 0 1 0;
#X connect 43 0 44 0;
#X connect 45 0 48 0;
#X connect 46 0 50 0;
#X connect 46 0 51 1;
#X connect 47 0 51 0;
#X connect 48 0 50 1;
#X connect 49 0 47 0;
#X connect 49 0 46 0;
#X connect 50 0 43 1;
#X connect 51 0 71 0;
#X connect 52 0 43 0;
#X connect 54 0 60 0;
#X connect 55 0 58 0;
#X connect 56 0 60 2;
#X connect 57 0 60 0;
#X connect 58 0 60 1;
#X connect 60 0 71 0;
#X connect 62 0 2 0;
#X connect 65 0 64 0;
#X connect 65 0 12 0;
#X connect 65 1 66 0;
#X connect 66 0 55 0;
#X connect 67 0 30 0;
#X connect 68 0 10 0;
#X connect 69 0 67 0;
#X connect 69 0 45 0;
#X connect 70 0 93 0;
#X connect 71 0 59 0;
#X connect 71 0 59 1;
#X connect 72 0 69 0;
#X connect 73 0 72 0;
#X connect 74 0 73 0;
#X connect 76 0 74 0;
#X connect 77 0 76 0;
#X connect 78 0 81 0;
#X connect 79 0 80 0;
#X connect 80 0 78 0;
#X connect 81 1 89 0;
#X connect 82 0 81 0;
#X connect 83 0 85 0;
#X connect 84 0 86 0;
#X connect 84 1 87 0;
#X connect 84 2 88 0;
#X connect 85 0 84 0;
#X connect 86 0 77 0;
#X connect 89 0 83 0;
#X connect 90 0 82 0;
#X connect 93 0 49 0;
#X connect 93 0 45 0;
