#N canvas 453 23 913 723 10;
#X obj 164 77 apple/multitouch;
#X obj 164 52 metro 100;
#X obj 164 29 tgl 15 0 empty empty empty 17 7 0 10 -262144 -1 -1 1
1;
#X floatatom 23 140 5 0 0 3 finger - -;
#X floatatom 62 168 10 0 0 3 frame - -;
#X floatatom 98 140 5 0 0 3 angle - -;
#X floatatom 137 140 5 0 0 3 majorAxis - -;
#X floatatom 195 140 5 0 0 3 minorAxis - -;
#X obj 163 106 unpack 0 0 0 0 0 0 0 0 0 0 0 0;
#X floatatom 253 140 5 0 0 3 x - -;
#X floatatom 291 140 5 0 0 3 y - -;
#X floatatom 336 140 5 0 0 3 x-velocity - -;
#X floatatom 385 140 5 0 0 3 Y-velocity - -;
#X obj 433 67 soundfiler;
#X floatatom 471 93 10 0 0 0 - - -;
#N canvas 0 22 450 300 (subpatch) 0;
#X array sample1 382977 float 2;
#X coords 0 1 382977 -1 200 140 1 0 0;
#X restore 561 99 graph;
#X obj 220 243 hsl 128 15 0 1 0 0 empty empty empty -2 -8 0 10 -262144
-1 -1 0 1;
#X obj 111 579 hip~ 5;
#X obj 169 466 line~;
#X obj 124 289 * 441;
#X floatatom 124 268 10 0 0 0 - - -;
#X text 243 375 <-- read point (100ths of a second);
#X obj 112 625 output~;
#X obj 171 489 tabread4~ sample1;
#X floatatom 259 345 10 0 0 0 - - -;
#X obj 245 305 * 10;
#X floatatom 223 419 5 0 0 0 - - -;
#X obj 169 442 pack 0 200;
#X obj 604 489 + 0;
#X floatatom 582 559 10 0 0 0 - - -;
#X obj 735 582 > 0;
#X obj 720 646 bng 15 250 50 0 empty empty empty 17 7 0 10 -262144
-1 -1;
#X obj 734 619 route 1;
#X obj 436 113 s sampMax;
#X obj 265 276 r sampMax;
#X obj 758 549 r sampMax;
#X obj 107 375 r readPoint;
#X obj 495 558 s readPoint;
#X obj 602 459 i;
#X obj 602 437 * 1;
#X obj 601 359 expr $f1*$f1+$f2*$f2;
#X floatatom 626 418 10 0 5000 0 - - -;
#X msg 650 463 0;
#X floatatom 638 489 10 0 0 0 - - -;
#X obj 779 43 loadbang;
#X msg 433 45 read -resize wav/BM140ALL04.WAV sample1;
#X obj 738 341 r lb;
#X obj 779 70 s lb;
#X obj 392 9 r lb;
#X obj 65 21 r lb;
#X msg 737 387 1200;
#X connect 0 0 8 0;
#X connect 1 0 0 0;
#X connect 2 0 1 0;
#X connect 8 0 3 0;
#X connect 8 1 4 0;
#X connect 8 2 5 0;
#X connect 8 3 6 0;
#X connect 8 4 7 0;
#X connect 8 5 9 0;
#X connect 8 6 10 0;
#X connect 8 7 11 0;
#X connect 8 8 12 0;
#X connect 9 0 25 0;
#X connect 11 0 40 0;
#X connect 12 0 40 1;
#X connect 13 0 14 0;
#X connect 13 0 33 0;
#X connect 16 0 25 0;
#X connect 17 0 22 0;
#X connect 17 0 22 1;
#X connect 18 0 23 0;
#X connect 19 0 27 0;
#X connect 20 0 19 0;
#X connect 23 0 17 0;
#X connect 25 0 24 0;
#X connect 26 0 27 1;
#X connect 27 0 18 0;
#X connect 28 0 29 0;
#X connect 28 0 37 0;
#X connect 28 0 43 0;
#X connect 28 0 30 0;
#X connect 30 0 32 0;
#X connect 31 0 42 0;
#X connect 32 0 31 0;
#X connect 34 0 25 1;
#X connect 35 0 30 1;
#X connect 36 0 27 0;
#X connect 38 0 28 0;
#X connect 39 0 38 0;
#X connect 40 0 39 0;
#X connect 41 0 39 1;
#X connect 42 0 43 0;
#X connect 43 0 28 1;
#X connect 44 0 47 0;
#X connect 45 0 13 0;
#X connect 46 0 50 0;
#X connect 48 0 45 0;
#X connect 49 0 2 0;
#X connect 50 0 41 0;
